<?xml version="1.0" encoding="utf-8"?>
<!-- Generator: Adobe Illustrator 16.0.0, SVG Export Plug-In . SVG Version: 6.00 Build 0)  -->
<!DOCTYPE svg PUBLIC "-//W3C//DTD SVG 1.0//EN" "http://www.w3.org/TR/2001/REC-SVG-20010904/DTD/svg10.dtd">
<svg version="1.0" id="Layer_1" xmlns="http://www.w3.org/2000/svg" xmlns:xlink="http://www.w3.org/1999/xlink" x="0px" y="0px"
	 width="256px" height="256px" viewBox="0 0 256 256" enable-background="new 0 0 256 256" xml:space="preserve">
<g>
	<circle fill="#F9B233" cx="128" cy="128" r="111.5"/>
	<circle fill="#F39200" cx="128" cy="128" r="99.619"/>
	<path fill="#FFFFFF" d="M199.702,96.512c-4.315-11.088-11.461-19.479-23.322-22.632c-11.01-2.927-21.706-1.579-31.642,4.155
		c-7.639,4.409-13.036,10.911-16.776,19.097c-1.971-4.492-4.516-8.383-7.73-11.817c-9.082-9.703-20.451-13.488-33.485-12.701
		c-6.633,0.401-12.805,2.421-18.045,6.605c-10.086,8.052-14.657,18.971-15.366,31.534c-0.438,7.748,1.594,15.161,4.859,22.194
		c2.233,4.808,5.08,9.158,8.357,13.162c5.205-13.498,6.927-16.854,25.403-21.475c3.218-0.804,24.831-7.935,28.499-8.689
		c0.998-0.204,1.96-0.3,2.868-0.3c6.452,0,10.126,4.696,4.162,6.988c-6.249,2.402-6.793,3.551-10.959,4.622
		c-1.831,0.47-9.206,1.654-12.567,3.473c10.793,1.592,19.492,2.228,26.942,2.228c10.143,0,17.967-1.177,25.578-2.715
		c6.069-1.226,11.57-3.65,16.451-8.063c1.068-0.969,2.247-1.369,3.319-1.369c2.926,0,5.067,2.993,2.135,5.645
		c-0.714,0.644-2.549,2.435-2.832,2.737c-15.16,16.179-35.021,18.348-62.403,22.148c-0.681,0.096-5.786,0.46-7.606,0.46
		c-0.286,0-0.491-0.009-0.585-0.028c-7.627,2.353-12.978,6.813-17.832,13.623c5.195,4.37,10.427,8.696,15.635,13.051
		c8.95,7.486,17.318,15.517,23.919,25.226c0.411,0.604,0.827,1.207,1.291,1.881c0.921-1.331,1.747-2.567,2.613-3.774
		c6.4-8.907,14.274-16.387,22.663-23.371c8.093-6.739,16.258-13.399,24.228-20.28c7.249-6.258,13.886-13.136,18.491-21.647
		C202.867,123.719,205.126,110.444,199.702,96.512z M124.411,130.744c-0.043-0.003-0.089-0.005-0.133-0.007
		c2.701-1.27,5.644-2.803,7.133-3.2c-0.02-0.121,10.585-4.729,15.364-3.343c0.199,0.057,0.364,0.169,0.509,0.306
		c8.776-5.661,10.028-6.05,13.298-5.524c0.136,0.008,0.354,0.116,0.6,0.27C156.138,123.529,139.503,128.303,124.411,130.744z
		 M178.634,119.236c-0.731-0.31-1.542-0.484-2.389-0.484c-1.695,0-3.319,0.658-4.698,1.901c-4.257,3.851-9.32,6.327-15.478,7.572
		c-5.997,1.212-12.709,2.346-21.292,2.615c11.714-2.575,23.763-6.379,28.145-10.435c0.055,0.02,0.102,0.039,0.159,0.058
		c0.278-0.207,0.559-0.401,0.83-0.63c1.739-1.462,3.726-3.308,5.936-4.247c3.509-1.938,8.768-2.621,9.336,2.589
		C179.239,118.716,178.991,119.063,178.634,119.236z"/>
</g>
</svg>
